<?xml version="1.0" standalone="no"?>
<!DOCTYPE svg PUBLIC "-//W3C//DTD SVG 20010904//EN"
 "http://www.w3.org/TR/2001/REC-SVG-20010904/DTD/svg10.dtd">
<svg version="1.0" xmlns="http://www.w3.org/2000/svg"
 width="512.000000pt" height="512.000000pt" viewBox="0 0 512.000000 512.000000"
 preserveAspectRatio="xMidYMid meet">

<g transform="translate(0.000000,512.000000) scale(0.100000,-0.100000)"
fill="#000000" stroke="none">
<path d="M380 4943 c-131 -46 -220 -168 -220 -302 0 -25 13 -82 29 -126 86
-244 1648 -4187 1673 -4223 36 -52 116 -107 181 -123 61 -15 142 -7 204 21 58
25 135 98 157 149 9 20 126 445 261 946 135 500 249 913 253 917 4 4 410 115
902 248 492 132 915 248 940 257 61 22 143 102 170 165 12 29 25 78 27 109 10
103 -45 219 -130 277 -38 27 -4109 1639 -4250 1683 -71 23 -137 23 -197 2z
m2193 -1128 c1403 -553 2051 -812 2039 -817 -9 -4 -420 -116 -911 -249 -492
-132 -912 -249 -933 -260 -56 -29 -101 -72 -130 -126 -15 -28 -65 -192 -118
-388 -229 -849 -391 -1452 -397 -1470 -4 -13 -42 74 -118 265 -1069 2715
-1515 3849 -1515 3855 0 3 6 5 13 3 8 -2 939 -367 2070 -813z"/>
</g>
</svg>
